<?xml version="1.0" standalone="no"?>
<!DOCTYPE svg PUBLIC "-//W3C//DTD SVG 20010904//EN"
 "http://www.w3.org/TR/2001/REC-SVG-20010904/DTD/svg10.dtd">
<svg version="1.0" xmlns="http://www.w3.org/2000/svg"
 width="700.000000pt" height="700.000000pt" viewBox="0 0 700.000000 700.000000"
 preserveAspectRatio="xMidYMid meet">
<metadata>
Created by potrace 1.14, written by Peter Selinger 2001-2017
</metadata>
<g transform="translate(0.000000,700.000000) scale(0.100000,-0.100000)"
fill="#000000" stroke="none">
<path d="M3320 5501 c0 -4 -17 -7 -38 -8 -21 -1 -62 -9 -92 -16 -30 -8 -67
-14 -82 -13 -15 1 -25 -1 -22 -5 2 -4 -13 -10 -34 -14 -46 -8 -188 -51 -242
-73 -30 -12 -63 -25 -70 -27 -3 0 -22 -9 -42 -19 -20 -10 -42 -14 -49 -10 -7
4 -9 3 -6 -3 8 -13 -50 -46 -65 -37 -7 4 -8 3 -4 -4 4 -7 -3 -14 -19 -18 -14
-3 -25 -10 -25 -15 0 -5 -6 -9 -13 -9 -7 0 -23 -9 -35 -20 -12 -11 -24 -20
-27 -20 -4 0 -13 -7 -22 -16 -9 -8 -22 -13 -30 -10 -8 3 -12 2 -9 -2 3 -5 -26
-35 -64 -67 -39 -32 -70 -62 -70 -67 0 -6 -7 -8 -15 -4 -8 3 -14 2 -12 -3 2
-6 -45 -70 -78 -105 -32 -34 -95 -134 -143 -226 -30 -58 -53 -105 -52 -105 2
0 -8 -28 -26 -78 -16 -44 -30 -98 -49 -192 -3 -14 -7 -36 -10 -50 -36 -170
-38 -439 -5 -579 5 -22 7 -44 4 -48 -3 -4 0 -8 5 -8 6 0 11 -10 11 -23 0 -13
3 -27 7 -31 4 -3 8 -13 10 -21 5 -26 10 -39 22 -70 7 -16 14 -34 16 -40 9 -36
114 -247 160 -323 6 -9 23 -36 38 -59 14 -23 28 -47 29 -53 4 -16 61 -81 166
-188 50 -53 92 -99 92 -104 0 -4 5 -8 11 -8 14 0 75 -61 71 -72 -1 -4 2 -8 8
-8 5 0 10 -11 10 -23 0 -13 3 -27 7 -31 4 -3 8 -16 10 -28 2 -12 10 -42 19
-67 9 -25 17 -53 19 -61 2 -8 11 -44 20 -79 11 -44 14 -71 7 -85 -5 -12 -8
-46 -7 -77 2 -44 8 -65 29 -92 20 -26 27 -47 28 -88 1 -30 -2 -61 -6 -68 -6
-9 -5 -12 2 -8 7 5 11 -14 11 -55 2 -78 9 -225 14 -258 2 -14 -2 -31 -7 -39
-8 -11 -8 -13 2 -7 9 5 12 -7 13 -51 2 -67 5 -133 13 -253 3 -47 8 -128 12
-180 3 -52 7 -103 7 -112 2 -16 19 -34 94 -97 15 -14 78 -68 139 -120 61 -53
132 -114 158 -136 26 -22 64 -55 84 -72 l37 -33 265 0 265 0 30 26 c17 14 55
47 85 74 77 66 285 246 347 299 47 40 51 47 52 90 1 25 3 69 6 96 5 74 17 251
20 325 4 77 15 267 20 330 7 90 16 255 16 275 -1 29 20 65 33 58 6 -3 8 -3 4
1 -3 4 0 24 8 43 9 19 13 38 10 40 -3 3 -1 14 4 24 6 11 6 19 0 21 -17 6 -17
83 1 146 10 34 15 62 12 62 -3 0 0 7 7 15 7 8 10 15 7 15 -3 0 1 16 9 35 8 19
11 35 8 35 -4 0 -1 7 6 15 7 8 9 15 5 15 -4 0 -2 6 4 13 6 8 8 16 6 19 -12 11
21 65 67 110 27 27 48 46 48 43 0 -3 8 3 18 12 11 10 18 20 17 23 -2 3 15 19
36 35 21 17 38 33 39 37 0 4 12 21 28 37 47 50 67 75 98 116 16 22 32 42 37
43 4 2 5 8 2 12 -3 5 3 18 15 30 11 11 17 20 13 20 -3 0 2 9 12 20 10 11 15
20 11 20 -4 0 1 12 12 28 38 53 127 238 124 255 -1 4 3 7 10 7 6 0 8 3 5 7 -4
3 -2 12 4 20 6 7 9 13 5 13 -4 0 0 13 8 28 13 25 40 113 52 171 3 14 7 28 10
32 5 8 16 113 17 157 1 12 6 22 12 22 6 0 7 3 0 8 -5 4 -10 43 -11 87 0 44 -4
100 -7 125 -3 25 -9 72 -12 105 -4 33 -9 63 -11 66 -2 4 -6 24 -10 45 -3 22
-10 56 -15 77 -5 20 -7 42 -4 47 3 6 2 10 -4 10 -8 0 -25 35 -23 50 0 3 -6 19
-13 37 -7 17 -11 34 -7 37 3 3 0 6 -7 6 -7 0 -11 6 -8 14 3 8 3 16 -2 18 -8 3
-75 141 -72 147 2 2 -1 7 -6 10 -8 6 -32 39 -85 118 -32 47 -172 192 -223 231
-16 12 -55 40 -85 62 -30 22 -61 44 -67 50 -7 6 -13 7 -13 3 0 -4 -4 -3 -8 3
-10 15 -215 114 -235 114 -9 0 -17 4 -17 9 0 6 -68 31 -132 47 -5 1 -9 2 -10
4 -2 1 -10 3 -18 5 -8 2 -46 13 -85 23 -38 11 -95 25 -125 31 -30 6 -68 13
-85 16 -16 4 -43 8 -60 11 -43 7 -385 11 -385 5z"/>
<path d="M4076 5447 c3 -10 9 -15 12 -12 3 3 0 11 -7 18 -10 9 -11 8 -5 -6z"/>
<path d="M1654 5213 c-11 -61 -107 -325 -128 -352 -5 -7 -11 -20 -12 -28 -5
-29 -26 -73 -34 -68 -5 3 -7 -3 -6 -12 2 -10 -1 -25 -5 -33 -5 -8 -17 -35 -27
-60 -11 -25 -29 -67 -42 -95 -12 -27 -35 -86 -51 -130 -17 -43 -35 -85 -41
-92 -6 -7 -8 -13 -4 -13 3 0 -3 -22 -13 -49 -10 -28 -16 -52 -13 -55 3 -4 1
-6 -4 -6 -5 0 -10 -8 -11 -17 0 -10 -10 -52 -22 -93 -11 -41 -23 -86 -25 -100
-13 -75 -29 -167 -31 -185 -2 -11 -4 -20 -5 -20 -4 0 -8 -96 -10 -195 -1 -105
22 -286 41 -323 6 -10 8 -21 5 -24 -3 -4 -2 -11 3 -17 7 -9 44 -112 46 -126 1
-18 155 -311 155 -296 0 5 14 -10 30 -33 31 -42 66 -81 74 -81 3 0 16 -10 30
-23 14 -13 43 -32 65 -43 23 -10 41 -21 41 -24 0 -3 10 -6 22 -7 11 -1 24 -7
28 -13 4 -7 9 -11 11 -9 3 2 30 -5 59 -15 3 -1 23 -6 45 -11 22 -4 47 -10 55
-12 8 -2 33 -6 54 -9 22 -3 44 -7 48 -10 4 -3 8 -3 8 0 0 3 -17 12 -37 22 -79
34 -165 80 -183 97 -11 9 -22 17 -24 17 -13 0 -114 95 -159 148 -15 19 -24 39
-21 44 4 6 3 8 -2 5 -11 -6 -77 98 -77 120 0 7 -4 13 -7 13 -6 0 -33 53 -35
70 -1 3 -9 23 -18 44 -10 22 -18 50 -19 62 -1 12 -6 20 -10 18 -4 -3 -8 -2 -9
3 -2 21 -11 61 -24 107 -15 51 -20 84 -33 186 -11 96 -4 359 12 436 2 12 7 39
10 60 7 41 42 178 53 204 3 8 7 20 8 25 0 6 4 17 7 25 4 8 18 49 33 90 14 41
28 82 32 90 3 8 7 18 8 23 2 4 4 9 5 12 1 3 3 11 4 18 1 6 8 11 16 9 12 -3 12
-1 3 9 -7 7 -9 17 -4 23 4 6 14 32 21 59 7 26 17 47 23 47 6 0 7 3 4 7 -4 3 0
17 9 31 8 13 13 26 10 29 -3 3 0 15 6 27 7 11 13 26 14 31 1 6 19 60 39 120
61 184 74 279 47 347 -17 42 -30 42 -38 1z"/>
<path d="M5253 5230 c-3 -11 -9 -20 -12 -20 -7 0 -11 -15 -12 -52 0 -10 -5
-20 -10 -24 -6 -4 -7 -10 0 -17 5 -7 11 -32 13 -57 1 -25 6 -47 9 -50 4 -3 9
-18 10 -35 2 -16 6 -32 9 -35 8 -7 90 -257 90 -274 0 -8 4 -16 9 -18 12 -4 81
-204 74 -212 -4 -3 -2 -6 4 -6 6 0 15 -17 21 -37 6 -21 29 -92 52 -157 38
-111 67 -228 86 -351 9 -63 11 -355 2 -415 -4 -25 -7 -55 -7 -68 -1 -16 -5
-21 -13 -16 -10 6 -10 4 -2 -7 12 -16 -6 -96 -19 -82 -5 4 -5 0 -1 -10 7 -19
-16 -107 -28 -107 -4 0 -7 -3 -7 -7 1 -5 0 -11 -1 -15 -1 -5 -3 -11 -4 -15 -7
-40 -106 -243 -130 -269 -6 -6 -18 -22 -26 -35 -24 -38 -171 -179 -186 -179
-8 0 -14 -4 -14 -9 0 -6 -48 -33 -106 -61 -58 -29 -104 -53 -102 -55 3 -3 50
6 158 31 14 3 32 7 40 9 8 2 15 4 15 5 0 1 8 3 19 5 39 8 188 90 227 127 22
21 45 38 50 38 5 0 8 4 7 9 -2 5 12 25 30 45 18 20 30 36 27 36 -3 0 5 15 18
33 13 17 35 56 47 85 13 28 27 52 32 52 4 0 7 3 6 8 -4 12 24 72 34 72 5 0 7
4 4 9 -3 4 8 46 25 92 17 46 33 95 35 109 3 14 9 41 14 60 21 82 36 365 20
375 -4 2 -7 23 -9 47 -1 24 -3 52 -5 63 -2 11 -8 45 -12 75 -9 59 -10 69 -14
73 -1 1 -3 10 -5 21 -2 10 -9 40 -15 67 -7 26 -8 53 -4 60 4 7 3 9 -4 5 -6 -3
-14 7 -18 26 -12 48 -11 48 -13 51 -2 4 -71 201 -74 212 -2 6 -9 20 -15 33 -7
12 -10 22 -7 22 3 0 -2 11 -11 25 -9 14 -12 25 -8 25 5 0 4 4 -2 8 -12 8 -60
123 -56 135 1 4 -2 7 -6 7 -8 0 -34 64 -32 76 1 4 -2 10 -7 13 -7 5 -67 141
-77 176 -2 6 -8 24 -15 40 -16 38 -60 163 -61 173 -2 22 -22 82 -26 82 -3 0
-8 -9 -11 -20z"/>
<path d="M1600 4120 c-9 -6 -10 -10 -3 -10 6 0 15 5 18 10 8 12 4 12 -15 0z"/>
<path d="M1076 3602 c-3 -5 1 -9 9 -9 8 0 12 4 9 9 -3 4 -7 8 -9 8 -2 0 -6 -4
-9 -8z"/>
<path d="M1113 3207 c0 -8 6 -14 14 -14 9 0 10 4 2 14 -6 7 -12 13 -14 13 -1
0 -2 -6 -2 -13z"/>
<path d="M5649 2523 c-13 -16 -12 -17 4 -4 16 13 21 21 13 21 -2 0 -10 -8 -17
-17z"/>
<path d="M1693 2365 c0 -8 4 -12 9 -9 5 3 6 10 3 15 -9 13 -12 11 -12 -6z"/>
<path d="M5270 2281 c0 -6 4 -13 10 -16 6 -3 7 1 4 9 -7 18 -14 21 -14 7z"/>
<path d="M1916 2158 c3 -5 10 -6 15 -3 13 9 11 12 -6 12 -8 0 -12 -4 -9 -9z"/>
<path d="M1826 2082 c-3 -5 1 -9 9 -9 8 0 12 4 9 9 -3 4 -7 8 -9 8 -2 0 -6 -4
-9 -8z"/>
<path d="M4956 1967 c3 -10 9 -15 12 -12 3 3 0 11 -7 18 -10 9 -11 8 -5 -6z"/>
<path d="M4839 1948 c-5 -18 -6 -38 -1 -34 7 8 12 36 6 36 -2 0 -4 -1 -5 -2z"/>
<path d="M4715 1900 c3 -5 8 -10 11 -10 2 0 4 5 4 10 0 6 -5 10 -11 10 -5 0
-7 -4 -4 -10z"/>
<path d="M2415 1840 c-3 -5 -1 -10 4 -10 6 0 11 5 11 10 0 6 -2 10 -4 10 -3 0
-8 -4 -11 -10z"/>
<path d="M4510 1780 c0 -5 5 -10 11 -10 5 0 7 5 4 10 -3 6 -8 10 -11 10 -2 0
-4 -4 -4 -10z"/>
<path d="M4413 1729 c-2 -23 3 -25 10 -4 4 8 3 16 -1 19 -4 3 -9 -4 -9 -15z"/>
<path d="M4353 1715 c0 -8 4 -12 9 -9 4 3 8 9 8 15 0 5 -4 9 -8 9 -5 0 -9 -7
-9 -15z"/>
</g>
</svg>
