<svg width="250" height="239" viewBox="0 0 250 239" fill="none" xmlns="http://www.w3.org/2000/svg">
<g clip-path="url(#clip0_163_463)">
<path d="M166.97 71.1674C166.105 72.1926 165.007 72.9961 163.768 73.5107L160.217 77.5026L150.159 89.6267L143.364 93.73L140.209 88.3075L155.103 73.8239L159.253 69.6083C159.586 68.3092 160.226 67.1087 161.119 66.1075C163.318 63.5715 166.411 62.6491 168.026 64.0461C169.643 65.4434 169.17 68.631 166.97 71.1674Z" fill="#854D0E"/>
<path d="M106.18 83.2142L112.721 72.3477L140.547 84.284L155.757 71.8778C155.757 71.8778 161.792 77.0671 162.007 77.2524C162.223 77.4377 146.669 98.9437 145.565 98.9184C144.461 98.893 106.18 83.2142 106.18 83.2142Z" fill="#DEDEDE"/>
<path d="M0 235.453C0 235.777 0.260843 236.037 0.585664 236.037H249.414C249.739 236.037 250 235.777 250 235.453C250 235.129 249.739 234.868 249.414 234.868H0.585664C0.260843 234.868 0 235.129 0 235.453Z" fill="#3F3D58"/>
<path d="M168.986 0C188.796 0 204.912 15.0969 204.912 33.654C204.912 38.8391 203.618 43.9963 201.163 48.6233H201.192L200.542 49.7518C195.024 59.2415 191.96 70.0486 191.682 81.004C191.598 84.3438 188.91 86.9601 185.563 86.9601H157.568C153.96 86.9601 150.931 84.3786 150.364 80.8222C148.985 72.1693 146.227 63.8316 142.168 56.0399C136.295 49.8693 133.061 41.9217 133.061 33.6541C133.061 15.0969 149.177 0 168.986 0ZM199.671 49.2917L199.904 48.8733C202.536 44.2088 203.928 38.9461 203.928 33.654C203.928 15.6391 188.253 0.9826 168.986 0.9826C149.72 0.9826 134.045 15.6391 134.045 33.654C134.045 41.6909 137.2 49.4179 142.929 55.4123L143.009 55.5246C147.135 63.4276 149.937 71.8872 151.336 80.6677C151.826 83.7443 154.447 85.9775 157.568 85.9775H185.563C188.372 85.9775 190.627 83.782 190.698 80.9791C190.98 69.8725 194.082 58.9162 199.671 49.2917Z" fill="#3F3D56"/>
<path d="M189.436 84.5037H152.474C151.299 84.5037 150.377 85.5111 150.484 86.6795L150.83 90.48C151.119 93.6604 152.125 96.7345 153.771 99.4729C154.046 99.9309 154.565 100.182 155.096 100.118C166.049 98.7998 176.765 98.7567 187.225 100.099C187.797 100.172 188.352 99.8801 188.61 99.365L188.847 98.892C190.032 96.5264 190.763 93.9604 191.003 91.3264L191.426 86.6795C191.533 85.5111 190.611 84.5037 189.436 84.5037Z" fill="#3F3D56"/>
<path d="M156.191 97.5231H186.457V117.189C186.457 120.706 183.597 123.562 180.073 123.562H162.575C159.052 123.562 156.191 120.706 156.191 117.189V97.5231Z" fill="#3F3D56"/>
<path d="M175.219 128.721H168.66C167.938 128.721 167.261 128.373 166.842 127.787L162.589 121.842H181.29L177.037 127.787C176.617 128.373 175.94 128.721 175.219 128.721Z" fill="#3F3D56"/>
<path d="M180.181 17.3559C175.366 18.3514 170.55 19.3468 165.735 20.3422C163.569 20.7899 161.144 21.0222 159.177 22.0965C157.269 23.1381 155.934 25.3236 156.616 27.5114C157.268 29.6007 159.191 30.9113 161.254 31.3772C163.543 31.8941 165.995 31.8904 168.328 32.0702C170.762 32.2578 173.195 32.4453 175.629 32.6328C176.787 32.7221 177.951 32.7837 179.106 32.9025C179.476 32.9405 179.879 32.9857 180.182 33.2198C180.178 33.2163 180.285 33.2833 180.226 33.2936C180.214 33.2956 180.213 33.2178 180.215 33.2126C180.262 33.0668 180.242 33.2047 180.205 33.2051C180.191 33.2052 179.843 33.435 179.648 33.4713C179.124 33.5693 178.545 33.498 178.013 33.489C176.858 33.4693 175.702 33.4911 174.549 33.5539C172.227 33.6803 169.909 33.9685 167.625 34.4052C165.379 34.8348 163.144 35.4067 160.987 36.1686C158.895 36.9072 156.705 38.31 156.648 40.7849C156.594 43.1094 158.614 44.7429 160.672 45.3269C161.73 45.6272 162.845 45.7361 163.93 45.8972C165.141 46.0771 166.351 46.2569 167.562 46.4367C169.944 46.7903 172.325 47.144 174.706 47.4976C175.917 47.6774 177.128 47.8572 178.338 48.037C178.903 48.1209 179.471 48.1932 180.034 48.2888C180.241 48.324 180.437 48.3892 180.641 48.4311C180.504 48.4029 180.674 48.4032 180.646 48.4351C180.736 48.49 180.736 48.4817 180.647 48.4103L180.586 48.3211C180.447 47.9317 180.452 47.8804 180.705 47.4199C180.754 47.332 180.852 47.4227 180.727 47.4089C180.593 47.3942 180.807 47.3922 180.665 47.451C180.593 47.4803 180.516 47.5003 180.442 47.5208C179.881 47.6757 179.294 47.7566 178.723 47.8684C177.537 48.101 176.35 48.3335 175.164 48.5661C172.831 49.0234 170.498 49.4806 168.165 49.9381C164.055 50.7439 159.69 51.8338 157.227 55.5359C156.692 56.3412 156.303 57.2692 156.109 58.2158C155.949 58.9949 156.335 59.8081 157.14 60.0289C157.87 60.2292 158.795 59.783 158.956 58.9995C159.736 55.1967 163.904 53.8311 167.332 53.1057C169.604 52.6249 171.89 52.2042 174.17 51.7574C176.467 51.3071 178.8 50.9405 181.078 50.4007C182.035 50.1738 183.074 49.5861 183.342 48.567C183.635 47.4511 183.083 46.374 182.07 45.8542C181.098 45.3556 179.943 45.3163 178.881 45.1586C177.711 44.9848 176.54 44.8109 175.37 44.6371C172.989 44.2835 170.607 43.9298 168.226 43.5762C167.056 43.4024 165.885 43.2286 164.715 43.0547C163.63 42.8936 162.515 42.7847 161.457 42.4844C160.741 42.2812 160.008 41.9325 159.692 41.2519C159.59 41.0325 159.564 40.8729 159.633 40.6261C159.729 40.2874 159.995 39.9719 160.29 39.7384C160.972 39.2003 161.895 38.9602 162.705 38.7007C163.768 38.3601 164.844 38.0562 165.928 37.7898C168.081 37.2607 170.269 36.8735 172.476 36.6589C173.625 36.5471 174.779 36.476 175.934 36.4461C177.027 36.4178 178.121 36.4854 179.213 36.4516C180.376 36.4157 181.573 36.1052 182.372 35.205C183.194 34.2785 183.393 33.0135 182.822 31.9029C181.69 29.7052 178.692 29.9211 176.602 29.76C174.209 29.5756 171.816 29.3912 169.423 29.2068C167.185 29.0344 164.885 28.9981 162.667 28.6543C161.845 28.527 160.898 28.2926 160.279 27.8039C159.711 27.3559 159.342 26.7686 159.387 26.18C159.429 25.6325 159.989 25.0277 160.576 24.6916C161.398 24.2201 162.369 24.0442 163.288 23.853C168.015 22.869 172.746 21.8977 177.475 20.9201C178.639 20.6795 179.803 20.439 180.966 20.1984C181.748 20.0369 182.199 19.1172 181.998 18.3853C181.775 17.5757 180.965 17.194 180.181 17.3559Z" fill="#FDE047"/>
<path d="M118.124 64.3604H108.453V83.1021H118.124V64.3604Z" fill="#854D0E"/>
<path d="M134.09 116.585L110.766 114.881C110.766 114.881 101.094 137.03 108.49 151.229L113.61 180.761L111.585 229.369H122.179L138.641 151.229L134.09 116.585Z" fill="#2F2E41"/>
<path d="M129.539 141.392L138.641 149.301L134.09 226.764H123.85L129.539 141.392Z" fill="#2F2E41"/>
<path d="M113.157 68.0453C119.835 68.0453 125.248 62.641 125.248 55.9746C125.248 49.3082 119.835 43.9039 113.157 43.9039C106.48 43.9039 101.066 49.3082 101.066 55.9746C101.066 62.641 106.48 68.0453 113.157 68.0453Z" fill="#854D0E"/>
<path d="M111.709 217.833L124.199 219.803L126.547 228.748C126.547 228.748 136.688 232.558 131.801 236.698C126.915 240.838 108.863 238.697 107.436 235.728C106.008 232.758 111.709 217.833 111.709 217.833Z" fill="#2F2E41"/>
<path d="M121.949 217.833L134.439 219.803L136.787 228.748C136.787 228.748 146.928 232.558 142.042 236.698C137.155 240.838 119.103 238.697 117.676 235.728C116.249 232.758 121.949 217.833 121.949 217.833Z" fill="#2F2E41"/>
<path d="M156.454 114.664C155.112 114.679 153.785 114.372 152.586 113.77L147.239 113.69L131.473 113.995L123.924 111.534L125.98 105.608L146.693 107.421L152.601 107.809C153.804 107.213 155.133 106.913 156.476 106.935C159.835 106.943 162.554 108.681 162.548 110.815C162.543 112.949 159.815 114.672 156.454 114.664Z" fill="#854D0E"/>
<path d="M119.015 71.4341H107.045L103.086 83.3607L110.766 114.881L134.09 116.585L132.668 103.806C135.422 99.339 135.202 93.6542 132.112 89.4121L119.015 71.4341Z" fill="#DEDEDE"/>
<path d="M107.637 76.5454L120.152 74.4005L129.255 103.238L148.597 106.646V114.881C148.597 115.165 122.124 117.437 121.423 116.585C120.721 115.733 107.637 76.5454 107.637 76.5454Z" fill="#DEDEDE"/>
<path d="M119.195 48.9764C120.68 51.382 119.311 54.5505 117.481 56.7066C115.651 58.8628 113.292 60.7554 112.475 63.4611C111.742 65.8869 112.409 68.5031 113.27 70.8863C114.132 73.2696 115.203 75.6457 115.291 78.1778C115.38 80.7099 114.18 83.5062 111.791 84.361C109.339 85.2382 106.441 83.8597 104.079 84.9562C101.003 86.3845 100.306 91.3294 96.9533 91.842C94.8897 92.1575 92.9772 90.3714 92.4005 88.3684C91.8238 86.3654 92.238 84.2274 92.6549 82.1853C93.7971 76.59 94.9394 70.9948 96.0817 65.3996C97.0321 60.744 97.9825 56.0884 98.933 51.4329C99.5004 48.6533 100.174 45.68 102.266 43.7608C104.823 41.4158 108.677 41.36 112.147 41.5005C115.334 41.6297 118.651 41.8474 121.425 43.4185C124.2 44.9896 126.239 48.3292 125.278 51.3662C124.382 49.2287 121.702 48.0296 119.507 48.7834" fill="#171717"/>
</g>
<defs>
<clipPath id="clip0_163_463">
<rect width="250" height="239" fill="white"/>
</clipPath>
</defs>
</svg>
