<svg width="390" height="571" viewBox="0 0 390 571" fill="none" xmlns="http://www.w3.org/2000/svg">
<path d="M107 642C-102.969 525.217 -80.0226 588.168 -30 548C20.0225 507.832 -118.478 394.318 -30.0001 405.5C58.4783 416.682 -105.849 56.223 -17.3708 67.4054C71.1076 78.5878 126.927 348.176 215.406 359.358C303.884 370.541 369.522 189.818 458 201C521.5 157 362.823 397.884 395.835 492.302C428.848 586.72 456.5 445.5 432 574" fill="#FACC15"/>
<path d="M-545.341 2C-506.545 50.6588 -401.043 282.77 -312.565 293.953C-224.086 305.135 -102.949 57.9121 -14.4707 69.0945C74.0077 80.2769 129.827 349.865 218.306 361.047C306.784 372.23 427.921 125.007 516.4 136.189C604.878 147.371 710.38 379.483 749.176 428.142" stroke="#CA8A04" stroke-width="3" stroke-linecap="round" stroke-linejoin="round"/>
</svg>
