<svg width="358" height="233" viewBox="0 0 358 233" fill="none" xmlns="http://www.w3.org/2000/svg">
<g clip-path="url(#clip0_163_251)">
<path d="M109.897 218.126C112.319 212.89 114.74 207.577 115.791 201.904C116.842 196.232 116.401 190.075 113.39 185.155C110.38 180.235 104.452 176.898 98.7945 178.01C94.1481 178.924 90.4172 182.586 88.2327 186.79C86.0481 190.994 85.1716 195.736 84.322 200.398C84.0474 195.102 83.7567 189.721 81.9986 184.718C80.2406 179.715 76.7789 175.053 71.8452 173.117C66.9116 171.181 60.4936 172.704 57.8933 177.324C54.2299 183.834 59.0874 192.966 54.875 199.134C54.1525 192.947 47.6866 188.058 41.5415 189.053C35.3963 190.048 30.8009 196.728 32.065 202.828C32.8172 206.457 35.2919 209.544 38.2504 211.775C41.209 214.005 44.6499 216.59 48.0538 218.052L109.897 218.126Z" fill="#22C55E"/>
<path d="M35.2915 193.425C40.1729 195.132 45.0991 196.859 49.5556 199.529C53.5496 201.921 57.1063 205.142 59.3525 209.267C60.5832 211.48 61.3139 213.936 61.4932 216.463C61.5256 216.991 62.3516 216.995 62.319 216.463C62.0302 211.758 59.7391 207.453 56.5666 204.048C53.0883 200.315 48.5808 197.765 43.9271 195.787C41.1678 194.614 38.3399 193.618 35.511 192.628C35.0084 192.452 34.7922 193.25 35.2915 193.425Z" fill="white"/>
<path d="M63.4477 173.937C66.4468 178.937 68.8484 184.273 70.6031 189.833C72.3614 195.392 73.4689 201.136 73.9035 206.951C74.144 210.206 74.1702 213.473 73.9821 216.731C73.9514 217.262 74.7773 217.261 74.8079 216.731C75.141 210.857 74.7857 204.963 73.7493 199.171C72.7144 193.38 71.0136 187.728 68.6807 182.328C67.3712 179.295 65.8612 176.353 64.1608 173.52C64.1036 173.43 64.0134 173.365 63.9093 173.339C63.8053 173.314 63.6954 173.33 63.6029 173.384C63.5104 173.438 63.4425 173.526 63.4136 173.629C63.3846 173.733 63.3969 173.843 63.4477 173.937Z" fill="white"/>
<path d="M103.866 178.684C99.6236 188.222 96.6384 198.272 94.985 208.58C94.5207 211.475 94.1614 214.385 93.9069 217.308C93.8607 217.838 94.6868 217.835 94.7327 217.308C95.6319 207.023 97.8532 196.897 101.342 187.181C102.322 184.449 103.401 181.756 104.579 179.101C104.793 178.62 104.081 178.199 103.866 178.684Z" fill="white"/>
<path d="M250.327 229.382L250.26 224.252L226.091 224.565L226.157 229.695L250.327 229.382Z" fill="#737373"/>
<path d="M258.915 230.527L255.464 230.517L253.33 226.707L255.636 222.911L258.843 222.92C258.04 221.897 256.937 221.152 255.689 220.789C254.442 220.425 253.112 220.461 251.885 220.892C250.659 221.323 249.599 222.128 248.852 223.192C248.106 224.257 247.711 225.529 247.724 226.829C247.736 228.13 248.155 229.394 248.921 230.444C249.687 231.494 250.763 232.278 251.997 232.686C253.231 233.094 254.562 233.105 255.802 232.718C257.043 232.33 258.132 231.564 258.915 230.527Z" fill="#D4D4D4"/>
<path d="M217.502 230.527L220.954 230.517L223.088 226.707L220.781 222.911L217.574 222.92C218.377 221.897 219.48 221.152 220.728 220.789C221.976 220.425 223.306 220.461 224.532 220.892C225.758 221.323 226.819 222.128 227.565 223.192C228.311 224.257 228.706 225.529 228.694 226.829C228.681 228.13 228.263 229.394 227.496 230.444C226.73 231.494 225.654 232.278 224.42 232.686C223.186 233.094 221.856 233.105 220.615 232.718C219.374 232.33 218.286 231.564 217.502 230.527Z" fill="#D4D4D4"/>
<path d="M357.481 218.571H0.518841C0.381235 218.571 0.249266 218.516 0.151964 218.419C0.054663 218.322 0 218.19 0 218.052C0 217.914 0.054663 217.782 0.151964 217.685C0.249266 217.587 0.381235 217.533 0.518841 217.533H357.481C357.619 217.533 357.751 217.587 357.848 217.685C357.945 217.782 358 217.914 358 218.052C358 218.19 357.945 218.322 357.848 218.419C357.751 218.516 357.619 218.571 357.481 218.571Z" fill="#3F3D56"/>
<path d="M280.426 119.921C289.882 119.921 297.548 112.25 297.548 102.787C297.548 93.3247 289.882 85.6536 280.426 85.6536C270.97 85.6536 263.304 93.3247 263.304 102.787C263.304 112.25 270.97 119.921 280.426 119.921Z" fill="#713F12"/>
<path d="M287.365 198.975L288.683 205.201L313.313 203.075L311.367 193.885L287.365 198.975Z" fill="#FFE4E6"/>
<path d="M285.448 218.436L281.304 198.866L288.86 197.263L291.403 209.273C291.828 211.278 291.439 213.37 290.322 215.089C289.205 216.807 287.452 218.011 285.448 218.436Z" fill="#2F2E41"/>
<path d="M271.935 198.642L269.163 204.372L245.761 196.398L249.852 187.943L271.935 198.642Z" fill="#FFE4E6"/>
<path d="M265.547 207.671L270.893 196.622L277.845 199.99L269.133 217.996C268.22 217.554 267.403 216.936 266.729 216.178C266.054 215.42 265.536 214.536 265.203 213.577C264.87 212.618 264.729 211.603 264.788 210.59C264.847 209.577 265.105 208.585 265.547 207.671Z" fill="#2F2E41"/>
<path d="M225.83 187.327C226.631 187.477 227.455 187.448 228.244 187.244C229.033 187.04 229.768 186.666 230.397 186.147C231.025 185.628 231.533 184.978 231.883 184.242C232.233 183.505 232.418 182.701 232.424 181.886L271.012 146.283L261.429 138.856L226.492 176.209C225.122 176.29 223.83 176.87 222.859 177.841C221.889 178.811 221.308 180.104 221.226 181.474C221.145 182.845 221.568 184.197 222.417 185.276C223.265 186.355 224.48 187.085 225.83 187.327Z" fill="#FFE4E6"/>
<path d="M278.277 120.695C285.315 120.695 291.02 114.986 291.02 107.943C291.02 100.9 285.315 95.1904 278.277 95.1904C271.239 95.1904 265.534 100.9 265.534 107.943C265.534 114.986 271.239 120.695 278.277 120.695Z" fill="#FFE4E6"/>
<path d="M289.713 182.903C280.775 182.904 270.009 181.02 263.367 173.31L263.218 173.136L263.372 172.966C263.422 172.91 268.308 167.323 263.429 157.358L256.722 159.423L250.044 150.602L253.743 139.497L268.882 127.294C271.051 125.555 273.692 124.508 276.462 124.288C281.477 123.803 286.361 122.411 290.878 120.179C292.945 119.174 295.222 118.676 297.519 118.726L297.817 118.735C298.516 118.754 299.203 118.916 299.838 119.209C300.472 119.503 301.04 119.922 301.508 120.442C301.976 120.962 302.333 121.571 302.558 122.234C302.784 122.896 302.872 123.597 302.819 124.294C301.792 137.601 299.98 169.748 305.305 180.816L305.442 181.102L305.135 181.18C300.073 182.32 294.902 182.898 289.713 182.903Z" fill="#E6E6E6"/>
<path d="M265.12 173.14C265.12 173.14 231.396 170.025 227.764 179.89C224.132 189.755 228.283 194.428 234.509 196.505C240.735 198.582 255.781 201.178 255.781 201.178L262.526 192.87L280.167 193.909C280.167 193.909 299.823 205.317 305.258 217.519C306.424 220.16 308.283 222.435 310.638 224.102C312.993 225.77 315.756 226.767 318.632 226.989C322.989 227.292 326.862 225.645 326.862 218.831C326.862 203.255 305.071 180.929 305.071 180.929L265.12 173.14Z" fill="#2F2E41"/>
<path d="M239.438 188.457C239.438 188.457 248.258 185.861 262.267 192.611L239.438 188.457Z" fill="#2F2E41"/>
<path d="M265.565 99.8103C270.542 102.85 276.152 104.7 281.96 105.216L280.232 103.144C281.49 103.61 282.814 103.873 284.155 103.924C284.826 103.943 285.492 103.805 286.101 103.52C286.709 103.235 287.242 102.812 287.657 102.283C287.996 101.735 288.197 101.112 288.244 100.469C288.29 99.8258 288.181 99.1809 287.924 98.5892C287.397 97.409 286.578 96.3832 285.543 95.6097C283.709 94.1577 281.544 93.1824 279.242 92.7707C276.94 92.359 274.572 92.5236 272.349 93.2499C270.824 93.706 269.458 94.5827 268.408 95.7796C267.892 96.3825 267.533 97.1043 267.364 97.8801C267.196 98.6559 267.222 99.4614 267.441 100.224" fill="#713F12"/>
<path d="M280.334 89.6174C282.599 84.3564 285.988 79.656 290.263 75.8472C293.009 73.4055 296.216 71.3077 299.834 70.6745C303.452 70.0413 307.53 71.1261 309.749 74.0552C311.564 76.4503 311.904 79.6589 311.704 82.6579C311.504 85.657 310.834 88.627 310.898 91.6321C310.963 94.6983 311.793 97.6996 313.312 100.364C314.83 103.027 316.99 105.27 319.594 106.887C322.198 108.504 325.164 109.444 328.224 109.623C331.283 109.802 334.339 109.213 337.113 107.91C333.989 109.638 331.555 112.374 328.654 114.456C325.753 116.538 321.928 117.966 318.634 116.59C315.148 115.134 313.549 111.18 312.301 107.613L306.733 91.7047C305.786 89.0004 304.793 86.2159 302.861 84.1007C300.93 81.9855 297.795 80.6963 295.136 81.7597C293.121 82.5657 291.809 84.4895 290.658 86.3309C289.508 88.1722 288.294 90.1314 286.35 91.0969C284.406 92.0623 281.526 91.4679 280.89 89.3914" fill="#713F12"/>
<path d="M279.98 166.766L276.401 170.441L293.713 187.322L297.292 183.647L279.98 166.766Z" fill="#737373"/>
<path d="M293.928 183.95C293.221 184.677 292.744 185.598 292.559 186.595C292.374 187.593 292.489 188.623 292.889 189.556C293.289 190.488 293.957 191.281 294.807 191.834C295.658 192.387 296.653 192.675 297.667 192.662C298.681 192.649 299.668 192.335 300.504 191.76C301.34 191.186 301.987 190.376 302.363 189.433C302.738 188.491 302.827 187.458 302.616 186.465C302.405 185.472 301.905 184.565 301.179 183.856C300.205 182.907 298.894 182.383 297.534 182.401C296.174 182.418 294.877 182.976 293.928 183.95ZM299.174 189.066C298.871 189.377 298.482 189.592 298.057 189.682C297.632 189.773 297.19 189.735 296.786 189.573C296.382 189.412 296.035 189.135 295.789 188.776C295.543 188.418 295.409 187.995 295.403 187.56C295.398 187.125 295.521 186.698 295.758 186.333C295.995 185.968 296.334 185.682 296.733 185.511C297.133 185.339 297.574 185.29 298.001 185.369C298.429 185.448 298.823 185.653 299.134 185.956C299.552 186.363 299.79 186.92 299.798 187.503C299.805 188.086 299.581 188.648 299.174 189.066Z" fill="#D4D4D4"/>
<path d="M274.715 159.879L277.149 162.329L275.966 166.532L271.652 167.585L269.391 165.309C269.237 166.601 269.49 167.908 270.115 169.048C270.741 170.188 271.707 171.104 272.879 171.666C274.05 172.229 275.368 172.411 276.648 172.186C277.928 171.962 279.106 171.342 280.016 170.413C280.927 169.485 281.524 168.295 281.724 167.01C281.924 165.725 281.717 164.41 281.133 163.248C280.548 162.086 279.615 161.137 278.464 160.533C277.314 159.929 276.003 159.7 274.715 159.879Z" fill="#D4D4D4"/>
<path d="M284.707 182.948C284.487 182.948 284.267 182.936 284.048 182.912C282.768 182.763 281.575 182.186 280.663 181.273C279.751 180.361 279.174 179.167 279.026 177.885C278.935 177.085 279.014 176.276 279.257 175.508C279.5 174.741 279.903 174.035 280.439 173.434C280.974 172.834 281.63 172.353 282.364 172.024C283.098 171.695 283.893 171.525 284.698 171.525C284.952 171.526 285.206 171.545 285.458 171.582L302.88 153.022L301.062 146.956L310.196 142.858L312.756 149.12C313.613 151.241 313.765 153.582 313.187 155.797C312.61 158.011 311.335 159.979 309.551 161.411L290.374 176.676C290.394 176.862 290.404 177.049 290.405 177.236C290.404 178.039 290.235 178.833 289.907 179.566C289.58 180.3 289.101 180.956 288.504 181.492C287.463 182.433 286.109 182.952 284.707 182.948Z" fill="#FFE4E6"/>
<path d="M298.326 121.219C298.93 120.951 299.582 120.807 300.243 120.797C300.904 120.787 301.56 120.911 302.172 121.161C302.784 121.411 303.339 121.782 303.804 122.252C304.269 122.722 304.635 123.282 304.878 123.897L313.891 146.661L299.883 156.006L298.326 121.219Z" fill="#E6E6E6"/>
<path d="M232.693 126.535V13.1164C232.688 9.63924 231.305 6.30589 228.848 3.84715C226.391 1.3884 223.061 0.00491992 219.586 0H41.4833C38.0086 0.00492129 34.6776 1.38841 32.2206 3.84715C29.7636 6.30589 28.3811 9.63924 28.3762 13.1164V126.535C28.3811 130.012 29.7636 133.345 32.2206 135.804C34.6776 138.263 38.0086 139.646 41.4833 139.651H219.586C223.061 139.646 226.391 138.263 228.848 135.804C231.305 133.345 232.688 130.012 232.693 126.535ZM41.4833 138.108C38.4172 138.104 35.4778 136.884 33.3097 134.714C31.1416 132.545 29.922 129.603 29.9182 126.535V13.1164C29.922 10.0481 31.1416 7.10658 33.3097 4.93697C35.4778 2.76736 38.4172 1.54683 41.4833 1.5431H219.586C222.652 1.54683 225.591 2.76736 227.759 4.93697C229.927 7.10658 231.147 10.0481 231.151 13.1164V126.535C231.147 129.603 229.927 132.545 227.759 134.714C225.591 136.884 222.652 138.104 219.586 138.108H41.4833Z" fill="#3F3D56"/>
<path d="M231.151 20.4066H29.9182C29.7137 20.4066 29.5176 20.3253 29.373 20.1806C29.2284 20.0359 29.1472 19.8397 29.1472 19.6351C29.1472 19.4304 29.2284 19.2342 29.373 19.0895C29.5176 18.9448 29.7137 18.8635 29.9182 18.8635H231.151C231.355 18.8635 231.551 18.9448 231.696 19.0895C231.841 19.2342 231.922 19.4304 231.922 19.6351C231.922 19.8397 231.841 20.0359 231.696 20.1806C231.551 20.3253 231.355 20.4066 231.151 20.4066Z" fill="#3F3D56"/>
<path d="M43.0254 14.6595C45.1545 14.6595 46.8805 12.9323 46.8805 10.8017C46.8805 8.67115 45.1545 6.94397 43.0254 6.94397C40.8964 6.94397 39.1704 8.67115 39.1704 10.8017C39.1704 12.9323 40.8964 14.6595 43.0254 14.6595Z" fill="#65A30D"/>
<path d="M56.1324 14.6595C58.2615 14.6595 59.9874 12.9323 59.9874 10.8017C59.9874 8.67115 58.2615 6.94397 56.1324 6.94397C54.0033 6.94397 52.2773 8.67115 52.2773 10.8017C52.2773 12.9323 54.0033 14.6595 56.1324 14.6595Z" fill="#FDE047"/>
<path d="M69.2396 14.6595C71.3686 14.6595 73.0946 12.9323 73.0946 10.8017C73.0946 8.67115 71.3686 6.94397 69.2396 6.94397C67.1105 6.94397 65.3845 8.67115 65.3845 10.8017C65.3845 12.9323 67.1105 14.6595 69.2396 14.6595Z" fill="#EF4444"/>
<path d="M98.0498 103.443C97.9816 103.443 97.9141 103.43 97.8512 103.403C97.7882 103.377 97.731 103.339 97.6828 103.291C97.6347 103.243 97.5964 103.185 97.5704 103.122C97.5443 103.059 97.5309 102.992 97.5309 102.924C97.5309 97.5101 95.1594 94.4906 91.3332 91.3728C91.2802 91.3299 91.2361 91.2768 91.2036 91.2168C91.1711 91.1568 91.1507 91.0909 91.1436 91.023C91.1366 90.955 91.143 90.8864 91.1625 90.8209C91.182 90.7555 91.2143 90.6945 91.2574 90.6416C91.3005 90.5886 91.3536 90.5447 91.4137 90.5123C91.4737 90.4799 91.5396 90.4597 91.6075 90.4528C91.6754 90.446 91.744 90.4526 91.8094 90.4723C91.8747 90.492 91.9355 90.5244 91.9883 90.5677C96.0509 93.8776 98.5686 97.0994 98.5686 102.924C98.5686 102.992 98.5552 103.059 98.5291 103.122C98.5031 103.185 98.4649 103.243 98.4167 103.291C98.3685 103.339 98.3113 103.377 98.2483 103.403C98.1854 103.43 98.1179 103.443 98.0498 103.443Z" fill="black"/>
<path d="M53.6048 103.443C53.5366 103.443 53.4692 103.43 53.4062 103.403C53.3433 103.377 53.286 103.339 53.2379 103.291C53.1897 103.243 53.1515 103.185 53.1254 103.122C53.0993 103.059 53.0859 102.992 53.0859 102.924C53.0859 97.0994 55.6036 93.8776 59.6662 90.5677C59.719 90.5244 59.7798 90.492 59.8452 90.4723C59.9105 90.4526 59.9791 90.446 60.047 90.4528C60.1149 90.4597 60.1808 90.4799 60.2409 90.5123C60.301 90.5447 60.3541 90.5886 60.3972 90.6416C60.4403 90.6945 60.4725 90.7555 60.492 90.8209C60.5115 90.8864 60.5179 90.955 60.5109 91.023C60.5038 91.0909 60.4835 91.1568 60.4509 91.2168C60.4184 91.2768 60.3744 91.3299 60.3213 91.3728C56.4951 94.4906 54.1236 97.5106 54.1236 102.924C54.1236 102.992 54.1102 103.059 54.0842 103.122C54.0581 103.185 54.0199 103.243 53.9717 103.291C53.9235 103.339 53.8663 103.377 53.8033 103.403C53.7404 103.43 53.6729 103.443 53.6048 103.443Z" fill="black"/>
<path d="M93.6057 67.8614C93.4985 67.8615 93.394 67.8283 93.3065 67.7665C93.2189 67.7047 93.1526 67.6173 93.1167 67.5163C93.0808 67.4153 93.077 67.3056 93.1058 67.2024C93.1347 67.0991 93.1948 67.0073 93.2779 66.9396C97.211 63.7354 97.5309 59.1834 97.5309 53.9992C97.5309 53.8615 97.5856 53.7294 97.6829 53.6321C97.7802 53.5347 97.9122 53.48 98.0498 53.48C98.1874 53.48 98.3194 53.5347 98.4167 53.6321C98.514 53.7294 98.5686 53.8615 98.5686 53.9992C98.5686 59.4534 98.2198 64.2523 93.933 67.7448C93.8407 67.8204 93.725 67.8616 93.6057 67.8614Z" fill="black"/>
<path d="M58.0491 67.5836C57.9298 67.5838 57.8141 67.5426 57.7218 67.467C53.4348 63.9742 53.0859 59.3013 53.0859 53.9992C53.0859 53.8615 53.1406 53.7294 53.2379 53.6321C53.3352 53.5347 53.4672 53.48 53.6048 53.48C53.7424 53.48 53.8744 53.5347 53.9717 53.6321C54.069 53.7294 54.1236 53.8615 54.1236 53.9992C54.1236 59.2103 54.4367 63.4517 58.3769 66.6618C58.46 66.7295 58.5201 66.8213 58.549 66.9245C58.5778 67.0278 58.574 67.1374 58.5381 67.2384C58.5022 67.3395 58.4359 67.4269 58.3484 67.4887C58.2608 67.5504 58.1563 67.5836 58.0491 67.5836Z" fill="black"/>
<path d="M104.717 78.9987H93.6055C93.4679 78.9987 93.3359 78.9441 93.2386 78.8467C93.1413 78.7493 93.0867 78.6172 93.0867 78.4795C93.0867 78.3418 93.1413 78.2098 93.2386 78.1124C93.3359 78.015 93.4679 77.9603 93.6055 77.9603H104.717C104.854 77.9603 104.986 78.015 105.084 78.1124C105.181 78.2098 105.236 78.3418 105.236 78.4795C105.236 78.6172 105.181 78.7493 105.084 78.8467C104.986 78.9441 104.854 78.9987 104.717 78.9987Z" fill="black"/>
<path d="M58.0495 78.9987H46.9383C46.8007 78.9987 46.6687 78.9441 46.5714 78.8467C46.4741 78.7493 46.4194 78.6172 46.4194 78.4795C46.4194 78.3418 46.4741 78.2098 46.5714 78.1124C46.6687 78.015 46.8007 77.9603 46.9383 77.9603H58.0495C58.1871 77.9603 58.3191 78.015 58.4164 78.1124C58.5137 78.2098 58.5684 78.3418 58.5684 78.4795C58.5684 78.6172 58.5137 78.7493 58.4164 78.8467C58.3191 78.9441 58.1871 78.9987 58.0495 78.9987Z" fill="black"/>
<path d="M75.8274 101.219C75.7593 101.219 75.6918 101.206 75.6289 101.18C75.5659 101.154 75.5087 101.115 75.4605 101.067C75.4123 101.019 75.3741 100.962 75.3481 100.899C75.322 100.836 75.3086 100.768 75.3086 100.7V65.1186C75.3086 64.9809 75.3633 64.8488 75.4606 64.7514C75.5579 64.6541 75.6898 64.5994 75.8274 64.5994C75.965 64.5994 76.097 64.6541 76.1943 64.7514C76.2916 64.8488 76.3463 64.9809 76.3463 65.1186V100.7C76.3463 100.768 76.3329 100.836 76.3068 100.899C76.2807 100.962 76.2425 101.019 76.1943 101.067C76.1462 101.115 76.089 101.154 76.026 101.18C75.963 101.206 75.8956 101.219 75.8274 101.219Z" fill="black"/>
<path d="M75.8272 101.219C70.9763 101.214 66.3257 99.2826 62.8956 95.85C59.4655 92.4174 57.536 87.7635 57.5305 82.9091V69.5564C57.5305 61.006 64.5415 55.6942 75.8272 55.6942C87.6263 55.6942 94.1242 60.6173 94.1242 69.5564V82.9091C94.1187 87.7635 92.1892 92.4175 88.7591 95.8501C85.3289 99.2827 80.6782 101.214 75.8272 101.219ZM75.8272 56.7326C67.4837 56.7326 58.5682 60.1014 58.5682 69.5564V82.9091C58.5669 85.178 59.0125 87.4249 59.8792 89.5215C60.746 91.6181 62.0171 93.5232 63.6199 95.128C65.2227 96.7328 67.1258 98.0058 69.2204 98.8744C71.315 99.743 73.5601 100.19 75.8274 100.19C78.0947 100.19 80.3397 99.743 82.4343 98.8744C84.5289 98.0058 86.432 96.7328 88.0348 95.128C89.6376 93.5232 90.9087 91.6181 91.7755 89.5215C92.6423 87.4249 93.0878 85.178 93.0865 82.9091V69.5564C93.0865 58.3988 82.273 56.7326 75.8272 56.7326Z" fill="black"/>
<path d="M65.1929 58.8997C65.089 58.8997 64.9876 58.8686 64.9016 58.8103C64.8157 58.752 64.7492 58.6692 64.7108 58.5727C64.4111 57.8221 64.2378 57.027 64.198 56.2198C64.2071 53.1416 65.4311 50.1916 67.6036 48.0124C69.776 45.8332 72.7209 44.6012 75.7969 44.5847H75.8565C78.9285 44.5994 81.8705 45.827 84.0429 48.0007C86.2153 50.1744 87.4424 53.1184 87.4574 56.1926C87.4306 56.9436 87.2707 57.6839 86.9852 58.379C86.9322 58.5054 86.8314 58.6057 86.7048 58.658C86.5782 58.7103 86.4361 58.7104 86.3094 58.6583C86.1827 58.6061 86.0818 58.506 86.0286 58.3797C85.9755 58.2534 85.9743 58.1111 86.0255 57.984C86.2625 57.4084 86.3961 56.7954 86.4202 56.1734C86.4019 53.3771 85.2822 50.7008 83.3042 48.7256C81.3262 46.7504 78.6496 45.6356 75.8552 45.6231H75.7982C73.0007 45.6371 70.3218 46.7554 68.3438 48.7351C66.3657 50.7147 65.2485 53.3957 65.2349 56.1952C65.2717 56.879 65.4202 57.5521 65.6745 58.1878C65.7058 58.2666 65.7173 58.3518 65.7082 58.4361C65.699 58.5204 65.6694 58.6011 65.6219 58.6713C65.5744 58.7415 65.5105 58.799 65.4357 58.8388C65.361 58.8786 65.2776 58.8996 65.1929 58.8997Z" fill="black"/>
<path d="M128.522 56.0761H122.296C121.333 56.0761 120.409 55.6931 119.728 55.0115C119.047 54.33 118.664 53.4055 118.664 52.4416C118.664 51.4777 119.047 50.5532 119.728 49.8716C120.409 49.19 121.333 48.8071 122.296 48.8071H128.522C129.486 48.8071 130.409 49.19 131.09 49.8716C131.772 50.5532 132.154 51.4777 132.154 52.4416C132.154 53.4055 131.772 54.33 131.09 55.0115C130.409 55.6931 129.486 56.0761 128.522 56.0761Z" fill="#CCCCCC"/>
<path d="M171.067 71.3927H164.841C163.878 71.3927 162.954 71.0098 162.273 70.3282C161.592 69.6466 161.209 68.7222 161.209 67.7582C161.209 66.7943 161.592 65.8699 162.273 65.1883C162.954 64.5067 163.878 64.1238 164.841 64.1238H171.067C172.03 64.1238 172.954 64.5067 173.635 65.1883C174.316 65.8699 174.699 66.7943 174.699 67.7582C174.699 68.7222 174.316 69.6466 173.635 70.3282C172.954 71.0098 172.03 71.3927 171.067 71.3927Z" fill="#CCCCCC"/>
<path d="M190.783 71.3927H184.557C183.594 71.3927 182.67 71.0098 181.989 70.3282C181.308 69.6466 180.925 68.7222 180.925 67.7582C180.925 66.7943 181.308 65.8699 181.989 65.1883C182.67 64.5067 183.594 64.1238 184.557 64.1238H190.783C191.746 64.1238 192.67 64.5067 193.351 65.1883C194.032 65.8699 194.415 66.7943 194.415 67.7582C194.415 68.7222 194.032 69.6466 193.351 70.3282C192.67 71.0098 191.746 71.3927 190.783 71.3927Z" fill="#CCCCCC"/>
<path d="M210.499 71.3927H204.273C203.31 71.3927 202.386 71.0098 201.705 70.3282C201.024 69.6466 200.641 68.7222 200.641 67.7582C200.641 66.7943 201.024 65.8699 201.705 65.1883C202.386 64.5067 203.31 64.1238 204.273 64.1238H210.499C211.462 64.1238 212.386 64.5067 213.067 65.1883C213.748 65.8699 214.131 66.7943 214.131 67.7582C214.131 68.7222 213.748 69.6466 213.067 70.3282C212.386 71.0098 211.462 71.3927 210.499 71.3927Z" fill="#CCCCCC"/>
<path d="M171.586 56.3356H142.531C141.568 56.3356 140.644 55.9527 139.963 55.2711C139.282 54.5895 138.899 53.665 138.899 52.7011C138.899 51.7372 139.282 50.8128 139.963 50.1312C140.644 49.4496 141.568 49.0667 142.531 49.0667H171.586C172.549 49.0667 173.473 49.4496 174.154 50.1312C174.835 50.8128 175.218 51.7372 175.218 52.7011C175.218 53.665 174.835 54.5895 174.154 55.2711C173.473 55.9527 172.549 56.3356 171.586 56.3356Z" fill="#CCCCCC"/>
<path d="M151.351 70.8734H122.296C121.333 70.8734 120.409 70.4905 119.728 69.8089C119.047 69.1273 118.664 68.2029 118.664 67.239C118.664 66.275 119.047 65.3506 119.728 64.669C120.409 63.9874 121.333 63.6045 122.296 63.6045H151.351C152.314 63.6045 153.238 63.9874 153.919 64.669C154.601 65.3506 154.983 66.275 154.983 67.239C154.983 68.2029 154.601 69.1273 153.919 69.8089C153.238 70.4905 152.314 70.8734 151.351 70.8734Z" fill="#CCCCCC"/>
<path d="M208.424 56.3356H186.114C185.15 56.3356 184.227 55.9527 183.545 55.2711C182.864 54.5895 182.482 53.665 182.482 52.7011C182.482 51.7372 182.864 50.8128 183.545 50.1312C184.227 49.4496 185.15 49.0667 186.114 49.0667H208.424C209.387 49.0667 210.311 49.4496 210.992 50.1312C211.673 50.8128 212.056 51.7372 212.056 52.7011C212.056 53.665 211.673 54.5895 210.992 55.2711C210.311 55.9527 209.387 56.3356 208.424 56.3356Z" fill="#CCCCCC"/>
<path d="M128.522 86.7094H122.296C121.333 86.7094 120.409 86.3264 119.728 85.6448C119.047 84.9633 118.664 84.0388 118.664 83.0749C118.664 82.111 119.047 81.1865 119.728 80.5049C120.409 79.8234 121.333 79.4404 122.296 79.4404H128.522C129.486 79.4404 130.409 79.8234 131.09 80.5049C131.772 81.1865 132.154 82.111 132.154 83.0749C132.154 84.0388 131.772 84.9633 131.09 85.6448C130.409 86.3264 129.486 86.7094 128.522 86.7094Z" fill="#CCCCCC"/>
<path d="M171.586 86.969H142.531C141.568 86.969 140.644 86.5861 139.963 85.9045C139.282 85.2229 138.899 84.2985 138.899 83.3345C138.899 82.3706 139.282 81.4462 139.963 80.7646C140.644 80.083 141.568 79.7001 142.531 79.7001H171.586C172.549 79.7001 173.473 80.083 174.154 80.7646C174.835 81.4462 175.218 82.3706 175.218 83.3345C175.218 84.2985 174.835 85.2229 174.154 85.9045C173.473 86.5861 172.549 86.969 171.586 86.969Z" fill="#CCCCCC"/>
<path d="M208.424 86.969H186.114C185.15 86.969 184.227 86.5861 183.545 85.9045C182.864 85.2229 182.482 84.2985 182.482 83.3345C182.482 82.3706 182.864 81.4462 183.545 80.7646C184.227 80.083 185.15 79.7001 186.114 79.7001H208.424C209.387 79.7001 210.311 80.083 210.992 80.7646C211.673 81.4462 212.056 82.3706 212.056 83.3345C212.056 84.2985 211.673 85.2229 210.992 85.9045C210.311 86.5861 209.387 86.969 208.424 86.969Z" fill="#CCCCCC"/>
<path d="M198.566 99.1704C198.567 98.2068 198.95 97.283 199.631 96.6016C200.311 95.9202 201.235 95.537 202.198 95.5359H208.424C209.387 95.5359 210.311 95.9188 210.992 96.6004C211.673 97.282 212.056 98.2064 212.056 99.1704C212.056 100.134 211.673 101.059 210.992 101.74C210.311 102.422 209.387 102.805 208.424 102.805H202.198C201.235 102.804 200.311 102.42 199.631 101.739C198.95 101.058 198.567 100.134 198.566 99.1704Z" fill="#CCCCCC"/>
<path d="M155.502 99.43C155.503 98.4664 155.886 97.5426 156.567 96.8612C157.248 96.1799 158.171 95.7966 159.134 95.7955H188.189C189.152 95.7955 190.076 96.1785 190.757 96.86C191.438 97.5416 191.821 98.4661 191.821 99.43C191.821 100.394 191.438 101.318 190.757 102C190.076 102.682 189.152 103.064 188.189 103.064H159.134C158.171 103.063 157.248 102.68 156.567 101.999C155.886 101.317 155.503 100.394 155.502 99.43Z" fill="#CCCCCC"/>
<path d="M118.664 99.43C118.665 98.4664 119.048 97.5426 119.729 96.8612C120.41 96.1799 121.333 95.7966 122.296 95.7955H144.606C145.57 95.7955 146.493 96.1785 147.174 96.86C147.856 97.5416 148.238 98.4661 148.238 99.43C148.238 100.394 147.856 101.318 147.174 102C146.493 102.682 145.57 103.064 144.606 103.064H122.296C121.333 103.063 120.41 102.68 119.729 101.999C119.048 101.317 118.665 100.394 118.664 99.43Z" fill="#CCCCCC"/>
</g>
<defs>
<clipPath id="clip0_163_251">
<rect width="358" height="233" fill="white"/>
</clipPath>
</defs>
</svg>
