<svg width="354" height="343" viewBox="0 0 354 343" fill="none" xmlns="http://www.w3.org/2000/svg">
<g clip-path="url(#clip0_162_46)">
<path d="M187.799 260.339C182.534 261.144 178.683 264.504 179.197 267.843C179.711 271.183 184.395 273.237 189.661 272.432C191.769 272.139 193.776 271.347 195.514 270.122L217.777 266.433L216.291 257.661L194.079 260.795C192.052 260.145 189.898 259.989 187.799 260.339Z" fill="#FFE4E6"/>
<path d="M283.731 232.996L275.099 251.256L231.704 265.818L195.694 267.733L194.792 259.111L233.818 250.977L273.864 232.113L283.731 232.996Z" fill="#E6E6E6"/>
<path d="M185.275 194.796L184.091 194.822L186.354 297.3L187.537 297.274L185.275 194.796Z" fill="#3F3D56"/>
<path d="M185.3 240.17C185.193 239.807 182.74 231.164 188.052 222.669L189.057 223.293C184.033 231.326 186.411 239.755 186.436 239.839L185.3 240.17Z" fill="#3F3D56"/>
<path d="M188.468 223.325C188.468 223.325 186.853 212.321 201.731 209.301C204.83 208.672 207.744 208.242 210.415 207.955C213.568 207.617 214.798 211.92 211.95 213.309C207.825 215.322 203.944 217.858 201.922 220.861C196.344 229.142 188.468 223.325 188.468 223.325Z" fill="#22C55E"/>
<path d="M186.831 271.992L185.695 271.66C185.72 271.576 188.098 263.147 183.074 255.114L184.079 254.49C189.391 262.985 186.938 271.628 186.831 271.992Z" fill="#3F3D56"/>
<path d="M183.664 255.146C183.664 255.146 185.279 244.142 170.4 241.122C167.301 240.493 164.387 240.063 161.716 239.776C158.563 239.438 157.333 243.741 160.181 245.13C164.306 247.143 168.187 249.679 170.209 252.681C175.787 260.963 183.664 255.146 183.664 255.146Z" fill="#22C55E"/>
<path d="M204.371 180.568C207.366 179.78 210.166 178.409 210.073 177.052C209.963 175.44 205.805 174.36 202.219 174.196C204.924 172.086 207.41 169.169 206.65 167.85C205.951 166.638 202.7 167.107 199.7 168.176C201.475 165.646 202.723 162.795 201.773 161.819C200.589 160.604 196.387 162.702 193.519 165.02C194.077 161.408 193.795 156.849 192.17 156.436C190.81 156.091 188.883 158.743 187.562 161.632C186.978 158.601 185.796 155.722 184.432 155.722C182.488 155.722 180.913 161.563 180.913 165.368C180.913 165.584 180.919 165.786 180.928 165.98C180.733 165.754 180.51 165.519 180.255 165.272C177.516 162.621 172.215 159.678 170.861 161.068C169.911 162.043 171.159 164.894 172.934 167.424C169.934 166.356 166.683 165.886 165.984 167.099C165.045 168.728 169.059 172.796 172.322 174.769C172.126 174.745 171.92 174.725 171.7 174.71C167.892 174.451 161.939 175.62 161.806 177.553C161.713 178.91 164.514 180.282 167.509 181.069C164.527 182.186 161.742 183.922 161.994 185.298C162.301 186.967 166.982 187.552 170.662 187.21C167.913 189.839 164.931 194.55 166.175 195.93C167.087 196.942 170.025 195.895 172.678 194.302C171.405 197.212 170.713 200.413 171.88 201.191C173.421 202.219 177.647 198.642 179.876 195.564C179.649 199.33 180.553 204.502 182.346 204.706C183.701 204.861 185.203 202.134 186.128 199.188C187.112 202.208 188.725 205.061 190.115 204.872C191.923 204.626 192.711 199.324 192.374 195.556C194.672 198.507 198.541 201.663 200 200.69C201.166 199.912 200.475 196.711 199.202 193.8C201.855 195.394 204.793 196.441 205.704 195.429C206.948 194.049 203.967 189.338 201.218 186.708C204.898 187.051 209.579 186.466 209.885 184.796C210.138 183.421 207.353 181.685 204.371 180.568ZM188.246 191.218C187.476 191.322 186.772 191.472 186.237 191.854C185.668 191.291 184.838 191.12 183.914 191.014C182.88 190.897 181.941 190.885 181.224 191.48C180.962 190.754 180.317 190.238 179.566 189.737C178.92 189.306 178.294 188.953 177.639 188.885C177.588 188.087 177.081 187.41 176.459 186.721C176.063 186.281 175.667 185.888 175.227 185.625C175.862 184.855 175.789 183.882 175.592 182.814C175.452 182.052 175.27 181.358 174.863 180.843C175.401 180.251 175.535 179.416 175.599 178.491C175.668 177.482 175.639 176.567 175.055 175.885C176.565 176.077 177.294 175.139 177.971 173.963C178.358 173.292 178.669 172.645 178.693 171.989C179.487 171.884 180.131 171.333 180.778 170.668C181.332 170.101 181.802 169.538 181.979 168.891C182.613 169.422 183.478 169.503 184.432 169.503C185.361 169.503 186.206 169.426 186.835 168.932C187.323 169.371 188.006 169.6 188.759 169.791C189.477 169.973 190.156 170.095 190.773 169.972C190.998 170.485 191.398 170.951 191.855 171.42C192.503 172.085 193.146 172.636 193.941 172.741C193.964 173.397 194.276 174.043 194.663 174.715C195.118 175.505 195.597 176.189 196.32 176.494C196.236 176.953 196.245 177.459 196.281 177.99C196.344 178.915 196.478 179.75 197.016 180.342C196.609 180.857 196.427 181.551 196.287 182.313C196.091 183.381 196.018 184.354 196.652 185.124C196.213 185.387 195.816 185.78 195.42 186.22C194.799 186.909 194.292 187.586 194.24 188.383C193.586 188.452 192.96 188.805 192.314 189.236C191.432 189.824 190.697 190.433 190.556 191.38C189.894 191.06 189.102 191.101 188.246 191.218Z" fill="#F87171"/>
<path d="M186.191 193.055C193.132 193.055 198.759 187.446 198.759 180.527C198.759 173.608 193.132 167.999 186.191 167.999C179.25 167.999 173.624 173.608 173.624 180.527C173.624 187.446 179.25 193.055 186.191 193.055Z" fill="#FEF08A"/>
<path d="M34.6212 332.441C34.6212 332.83 34.9349 333.143 35.3254 333.143H344.376C344.767 333.143 345.081 332.83 345.081 332.441C345.081 332.052 344.767 331.739 344.376 331.739H35.3254C34.9349 331.739 34.6212 332.052 34.6212 332.441Z" fill="#3F3D56"/>
<path d="M203.694 302.328L195.944 321.869L185.915 315.053L191.841 294.603L203.694 302.328Z" fill="#FFE4E6"/>
<path d="M171.326 295.057L150.812 314.598L159.018 323.233L179.988 306.873L171.326 295.057Z" fill="#FFE4E6"/>
<path d="M287.576 231.435L287.348 229.845L282.106 219.62L264.782 224.164L267.973 238.252L287.576 231.435Z" fill="#FFE4E6"/>
<path d="M280.282 299.602L280.815 306.427C280.815 306.427 283.017 335.048 265.238 337.32C247.459 339.593 239.709 341.865 229.223 324.142L212.812 295.057L203.226 306.427L190.473 296.421C190.473 296.421 199.591 260.974 206.885 259.611C207.797 259.44 208.709 259.355 209.606 259.336C215.645 259.211 221.337 262.155 224.95 266.98L245.635 294.603L253.157 291.194L280.282 299.602Z" fill="#2F2E41"/>
<path d="M181.812 320.96L185.915 313.235L197.768 321.415C197.768 321.415 200.503 331.413 196.4 332.776C192.297 334.139 180.9 332.322 180.9 332.322C180.9 332.322 159.929 336.866 159.474 332.776C159.018 328.686 169.047 327.777 169.047 327.777L181.812 320.96Z" fill="#2F2E41"/>
<path d="M226.488 315.507L194.804 295.607L178.621 310.054L167.679 297.329C167.679 297.329 187.738 267.791 193.665 266.427C199.591 265.064 209.165 264.155 209.165 264.155L238.341 290.967L226.488 315.507Z" fill="#2F2E41"/>
<path d="M150.356 312.781L160.841 324.142L159.458 325.321C159.458 325.321 156.738 337.131 150.356 333.136C143.974 329.14 143.518 328.232 143.518 328.232C143.518 328.232 125.282 332.322 123.459 325.05C121.635 317.779 126.65 319.143 126.65 319.143L131.204 321.869L150.356 312.781Z" fill="#2F2E41"/>
<path d="M270.253 229.163C278.31 229.163 284.841 222.652 284.841 214.621C284.841 206.589 278.31 200.079 270.253 200.079C262.196 200.079 255.665 206.589 255.665 214.621C255.665 222.652 262.196 229.163 270.253 229.163Z" fill="#FFE4E6"/>
<path d="M266.834 235.298L287.804 228.936C287.804 228.936 296.01 248.022 294.642 256.657C293.275 265.291 280.815 306.427 280.815 306.427L253.157 291.194C253.157 291.194 252.701 282.106 251.334 278.016C249.966 273.926 245.635 261.428 255.209 250.976C264.782 240.524 266.834 235.298 266.834 235.298Z" fill="#E6E6E6"/>
<path d="M62.0384 92.0046L60.8556 92.0305L66.181 333.282L67.3639 333.256L62.0384 92.0046Z" fill="#3F3D56"/>
<path d="M63.6686 198.581C63.6079 198.375 57.7409 177.725 70.0588 158.028L71.0631 158.652C59.0226 177.905 64.7448 198.048 64.8041 198.249L63.6686 198.581Z" fill="#3F3D56"/>
<path d="M70.3563 159.148C70.3563 159.148 66.5542 133.244 101.58 126.134C108.877 124.653 115.737 123.641 122.025 122.966C129.448 122.17 132.343 132.299 125.637 135.57C115.926 140.308 106.791 146.278 102.03 153.347C88.8985 172.844 70.3563 159.148 70.3563 159.148Z" fill="#22C55E"/>
<path d="M65.7344 273.493L64.5989 273.161C64.6579 272.96 70.3691 252.799 58.3399 233.563L59.3442 232.939C71.662 252.636 65.7951 273.286 65.7344 273.493Z" fill="#3F3D56"/>
<path d="M59.0467 234.06C59.0467 234.06 62.8487 208.155 27.8233 201.046C20.5263 199.565 13.6664 198.552 7.3781 197.878C-0.04458 197.082 -2.93997 207.211 3.76549 210.482C13.4765 215.22 22.6115 221.19 27.3728 228.259C40.5045 247.755 59.0467 234.06 59.0467 234.06Z" fill="#22C55E"/>
<path d="M107.796 58.4908C114.846 56.6377 121.439 53.4089 121.22 50.2148C120.96 46.4204 111.172 43.878 102.728 43.4911C109.097 38.524 114.949 31.6577 113.16 28.5523C111.514 25.6974 103.861 26.8033 96.799 29.3177C100.978 23.362 103.916 16.6508 101.678 14.3541C98.8913 11.4932 88.999 16.4312 82.248 21.8895C83.5623 13.386 82.8979 2.65238 79.0718 1.68126C75.871 0.86884 71.3346 7.11269 68.2243 13.9143C66.8497 6.77654 64.067 0 60.8553 0C56.2801 0 52.5712 13.7508 52.5712 22.7095C52.5712 23.2159 52.5846 23.6926 52.6078 24.148C52.1486 23.6173 51.6223 23.0629 51.0222 22.4818C44.5751 16.2405 32.0954 9.3128 28.9079 12.5846C26.6704 14.8813 29.6084 21.5924 33.7874 27.5482C26.7258 25.0337 19.0719 23.9278 17.4266 26.7827C15.2159 30.6188 24.6656 40.1949 32.3468 44.8388C31.885 44.7834 31.3999 44.7367 30.8836 44.7016C21.9175 44.0918 7.90269 46.8443 7.59123 51.3945C7.37258 54.5886 13.9654 57.8174 21.0155 59.6705C13.9964 62.3007 7.43861 66.3873 8.03383 69.6259C8.75622 73.5565 19.7749 74.9325 28.4386 74.1271C21.9662 80.3174 14.948 91.4068 17.8769 94.6568C20.0232 97.0385 26.9399 94.5733 33.1852 90.8227C30.1879 97.6745 28.56 105.211 31.3054 107.042C34.9335 109.461 44.8837 101.041 50.1298 93.7958C49.5953 102.66 51.7229 114.837 55.9444 115.317C59.1353 115.68 62.6714 109.262 64.8496 102.326C67.1656 109.436 70.962 116.152 74.2346 115.707C78.4901 115.128 80.3454 102.646 79.5516 93.7762C84.963 100.723 94.0702 108.153 97.5059 105.862C100.251 104.031 98.6234 96.4948 95.6261 89.6429C101.871 93.3936 108.788 95.8587 110.934 93.4771C113.863 90.2271 106.845 79.1377 100.373 72.9474C109.036 73.7528 120.055 72.3768 120.777 68.4462C121.373 65.2076 114.815 61.121 107.796 58.4908ZM69.8344 83.5628C68.0222 83.8093 66.3652 84.1613 65.105 85.0602C63.7663 83.7354 61.8109 83.332 59.6369 83.0845C57.2026 82.8074 54.9904 82.7806 53.3035 84.181C52.6863 82.4707 51.1684 81.2557 49.4004 80.0767C47.8801 79.063 46.4058 78.2308 44.8646 78.0703C44.7442 76.1938 43.5494 74.5989 42.087 72.9762C41.1546 71.9416 40.2217 71.0166 39.1866 70.3978C40.6801 68.5851 40.5079 66.294 40.0458 63.7797C39.7162 61.9863 39.2879 60.3522 38.3296 59.1383C39.5963 57.7447 39.9115 55.7792 40.0605 53.603C40.2231 51.2268 40.1556 49.0724 38.7796 47.4681C42.3354 47.919 44.0513 45.7108 45.6462 42.9433C46.5573 41.3623 47.2898 39.8394 47.3455 38.2957C49.2155 38.0482 50.7303 36.7513 52.2547 35.1865C53.557 33.8498 54.6648 32.5262 55.0809 31.0028C56.5731 32.2529 58.6091 32.4421 60.8553 32.4421C63.0435 32.4421 65.0321 32.2624 66.513 31.0975C67.6627 32.1332 69.269 32.6703 71.0414 33.1202C72.7334 33.5497 74.3306 33.8369 75.7827 33.5479C76.3128 34.755 77.2552 35.8512 78.3317 36.9561C79.8561 38.5209 81.3709 39.8177 83.2409 40.0653C83.2966 41.609 84.0291 43.1319 84.9402 44.7128C86.0126 46.5738 87.139 48.1828 88.8427 48.9007C88.6438 49.9817 88.6651 51.1715 88.7507 52.4233C88.8997 54.5995 89.215 56.5651 90.4816 57.9585C89.5233 59.1725 89.095 60.8066 88.7654 62.6C88.3033 65.1143 88.1311 67.4054 89.6246 69.2181C88.5895 69.8368 87.6566 70.7619 86.7242 71.7965C85.2619 73.4192 84.067 75.0141 83.9466 76.8906C82.4054 77.0511 80.9311 77.8832 79.4108 78.897C77.3345 80.2816 75.6049 81.7167 75.2727 83.9448C73.7145 83.1914 71.8493 83.2887 69.8344 83.5628Z" fill="#F87171"/>
<path d="M64.9973 87.8885C81.3373 87.8885 94.5835 74.6842 94.5835 58.3958C94.5835 42.1073 81.3373 28.903 64.9973 28.903C48.6574 28.903 35.4112 42.1073 35.4112 58.3958C35.4112 74.6842 48.6574 87.8885 64.9973 87.8885Z" fill="#FEF08A"/>
<path d="M338.354 275.022L337.171 275.048L338.444 332.692L339.627 332.666L338.354 275.022Z" fill="#3F3D56"/>
<path d="M337.861 300.623C337.8 300.414 336.389 295.445 339.438 290.569L340.443 291.194C337.682 295.607 338.984 300.246 338.997 300.292L337.861 300.623Z" fill="#3F3D56"/>
<path d="M339.892 291.075C339.892 291.075 338.983 284.885 347.352 283.186C349.096 282.833 350.735 282.591 352.237 282.43C354.011 282.239 354.702 284.659 353.1 285.441C350.78 286.573 348.597 288 347.46 289.689C344.322 294.347 339.892 291.075 339.892 291.075Z" fill="#22C55E"/>
<path d="M339.219 318.522L338.084 318.191C338.097 318.145 339.398 313.507 336.638 309.093L337.642 308.469C340.691 313.344 339.281 318.313 339.219 318.522Z" fill="#3F3D56"/>
<path d="M337.189 308.974C337.189 308.974 338.098 302.784 329.729 301.086C327.985 300.732 326.346 300.49 324.844 300.329C323.07 300.139 322.378 302.559 323.98 303.34C326.301 304.472 328.483 305.899 329.621 307.588C332.759 312.246 337.189 308.974 337.189 308.974Z" fill="#22C55E"/>
<path d="M348.837 267.024C350.522 266.581 352.097 265.81 352.045 265.046C351.983 264.14 349.644 263.532 347.626 263.44C349.148 262.253 350.546 260.612 350.119 259.87C349.726 259.188 347.897 259.453 346.21 260.053C347.208 258.63 347.91 257.027 347.376 256.478C346.71 255.794 344.346 256.974 342.733 258.278C343.047 256.247 342.888 253.682 341.974 253.45C341.209 253.256 340.125 254.748 339.382 256.373C339.054 254.667 338.389 253.048 337.621 253.048C336.528 253.048 335.642 256.334 335.642 258.474C335.642 258.595 335.645 258.709 335.651 258.818C335.541 258.691 335.415 258.559 335.272 258.42C333.731 256.929 330.75 255.273 329.988 256.055C329.453 256.604 330.155 258.207 331.154 259.631C329.467 259.03 327.638 258.765 327.245 259.448C326.716 260.364 328.974 262.652 330.81 263.762C330.699 263.749 330.583 263.738 330.46 263.729C328.318 263.583 324.969 264.241 324.895 265.328C324.842 266.092 326.418 266.863 328.102 267.306C326.425 267.934 324.858 268.911 325 269.685C325.173 270.624 327.806 270.952 329.876 270.76C328.329 272.239 326.652 274.889 327.352 275.665C327.865 276.234 329.518 275.645 331.01 274.749C330.294 276.386 329.905 278.187 330.561 278.625C331.428 279.203 333.805 277.191 335.059 275.46C334.931 277.577 335.439 280.487 336.448 280.602C337.21 280.689 338.055 279.155 338.576 277.498C339.129 279.197 340.036 280.801 340.818 280.695C341.835 280.557 342.278 277.574 342.089 275.455C343.382 277.115 345.558 278.89 346.379 278.343C347.035 277.905 346.646 276.104 345.929 274.467C347.422 275.364 349.074 275.953 349.587 275.383C350.287 274.607 348.61 271.957 347.064 270.478C349.134 270.671 351.766 270.342 351.939 269.403C352.081 268.629 350.514 267.652 348.837 267.024ZM339.767 273.015C339.334 273.073 338.938 273.158 338.637 273.372C338.317 273.056 337.85 272.959 337.33 272.9C336.749 272.834 336.22 272.828 335.817 273.162C335.669 272.754 335.307 272.463 334.884 272.182C334.521 271.939 334.169 271.741 333.801 271.702C333.772 271.254 333.486 270.873 333.137 270.485C332.914 270.238 332.691 270.017 332.444 269.869C332.801 269.436 332.76 268.888 332.649 268.288C332.57 267.859 332.468 267.469 332.239 267.179C332.542 266.846 332.617 266.376 332.653 265.856C332.692 265.288 332.675 264.773 332.347 264.39C333.196 264.498 333.606 263.97 333.987 263.309C334.205 262.931 334.38 262.567 334.393 262.199C334.84 262.139 335.202 261.83 335.566 261.456C335.878 261.136 336.142 260.82 336.242 260.456C336.598 260.755 337.085 260.8 337.621 260.8C338.144 260.8 338.619 260.757 338.973 260.479C339.248 260.726 339.632 260.854 340.055 260.962C340.46 261.065 340.841 261.133 341.188 261.064C341.315 261.353 341.54 261.614 341.797 261.878C342.161 262.252 342.523 262.562 342.97 262.621C342.983 262.99 343.158 263.354 343.376 263.732C343.632 264.176 343.902 264.561 344.309 264.732C344.261 264.991 344.266 265.275 344.287 265.574C344.322 266.094 344.398 266.564 344.7 266.897C344.471 267.187 344.369 267.577 344.29 268.006C344.18 268.607 344.139 269.154 344.495 269.587C344.248 269.735 344.025 269.956 343.802 270.203C343.453 270.591 343.168 270.972 343.139 271.42C342.771 271.459 342.418 271.657 342.055 271.9C341.559 272.231 341.146 272.573 341.066 273.106C340.694 272.926 340.248 272.949 339.767 273.015Z" fill="#F87171"/>
<path d="M338.611 274.048C342.515 274.048 345.68 270.893 345.68 267.001C345.68 263.109 342.515 259.954 338.611 259.954C334.707 259.954 331.542 263.109 331.542 267.001C331.542 270.893 334.707 274.048 338.611 274.048Z" fill="#FEF08A"/>
<path d="M220.679 330.723C217.266 334.798 216.609 339.858 219.212 342.022C221.814 344.187 226.689 342.637 230.103 338.56C231.489 336.949 232.468 335.032 232.958 332.967L247.2 315.516L240.262 309.919L225.689 326.921C223.739 327.771 222.021 329.075 220.679 330.723Z" fill="#FFE4E6"/>
<path d="M282.919 244.466L287.876 264.038L263.616 302.749L238.85 327.56L230.823 320.922L255.8 289.943L274.732 250.028L282.919 244.466Z" fill="#E6E6E6"/>
<path d="M256.804 212.121C260.546 212.112 260.758 212.137 261.363 212.121C266.003 211.999 267.217 210.18 269.569 210.304C273.767 210.525 268.226 231.506 265.922 241.206C263.662 250.719 271.3 259.243 271.848 259.838C279.601 268.242 293.218 269.779 295.554 266.2C297.445 263.303 290.743 258.898 292.363 252.567C293.947 246.377 301.26 247.036 303.304 241.206C305.445 235.099 298.251 232.02 293.731 217.12C291.135 208.563 291.594 206.969 289.172 201.669C282.697 187.503 250.962 193.535 254.525 206.668C255.214 209.209 253.38 212.13 256.804 212.121Z" fill="#FEF08A"/>
</g>
<defs>
<clipPath id="clip0_162_46">
<rect width="354" height="343" fill="white"/>
</clipPath>
</defs>
</svg>
