<svg width="351" height="267" viewBox="0 0 351 267" fill="none" xmlns="http://www.w3.org/2000/svg">
<g clip-path="url(#clip0_162_142)">
<path d="M140.453 55.3696H139.172V20.2983C139.172 17.6327 138.647 14.9932 137.627 12.5305C136.606 10.0678 135.111 7.83013 133.226 5.94525C131.341 4.06038 129.102 2.56521 126.639 1.54513C124.176 0.525037 121.536 2.25852e-06 118.87 0H44.5525C39.168 -1.02627e-05 34.0041 2.13854 30.1966 5.94521C26.3892 9.75187 24.2503 14.9148 24.2502 20.2983V212.702C24.2502 215.368 24.7754 218.007 25.7957 220.47C26.8159 222.933 28.3114 225.17 30.1966 227.055C32.0818 228.94 34.3199 230.435 36.7831 231.455C39.2463 232.476 41.8863 233.001 44.5524 233.001H118.87C124.254 233.001 129.418 230.862 133.226 227.055C137.033 223.249 139.172 218.086 139.172 212.702V80.334H140.453V55.3696Z" fill="#3F3D56"/>
<path d="M119.689 5.28088H109.988C110.434 6.37442 110.605 7.56086 110.484 8.73569C110.364 9.91052 109.956 11.0377 109.297 12.0179C108.638 12.9981 107.748 13.8013 106.706 14.3566C105.663 14.912 104.5 15.2025 103.319 15.2026H60.7435C59.5623 15.2025 58.3992 14.912 57.3568 14.3566C56.3143 13.8013 55.4244 12.9981 54.7656 12.0179C54.1067 11.0377 53.699 9.91053 53.5785 8.7357C53.458 7.56086 53.6283 6.37442 54.0744 5.28088H45.0137C43.0227 5.28088 41.0512 5.67297 39.2117 6.43476C37.3722 7.19655 35.7008 8.31312 34.293 9.72072C32.8851 11.1283 31.7683 12.7994 31.0064 14.6385C30.2444 16.4776 29.8523 18.4488 29.8523 20.4394V212.561C29.8523 214.552 30.2444 216.523 31.0064 218.362C31.7683 220.201 32.8851 221.872 34.2929 223.28C35.7008 224.687 37.3722 225.804 39.2117 226.566C41.0511 227.328 43.0227 227.72 45.0137 227.72H119.689C121.68 227.72 123.652 227.328 125.491 226.566C127.331 225.804 129.002 224.687 130.41 223.28C131.818 221.872 132.935 220.201 133.696 218.362C134.458 216.523 134.851 214.552 134.851 212.561V20.4394C134.851 18.4488 134.458 16.4776 133.696 14.6385C132.935 12.7994 131.818 11.1283 130.41 9.72072C129.002 8.31312 127.331 7.19655 125.491 6.43476C123.652 5.67297 121.68 5.28088 119.689 5.28088Z" fill="white"/>
<path d="M164.273 233.034H0.430034C0.315982 233.034 0.206601 232.989 0.125954 232.908C0.0453067 232.827 0 232.718 0 232.604C0 232.49 0.0453067 232.381 0.125954 232.3C0.206601 232.219 0.315982 232.174 0.430034 232.174H164.273C164.387 232.174 164.496 232.219 164.577 232.3C164.658 232.381 164.703 232.49 164.703 232.604C164.703 232.718 164.658 232.827 164.577 232.908C164.496 232.989 164.387 233.034 164.273 233.034Z" fill="#CBCBCB"/>
<path d="M82.3514 148.626C102.408 148.626 118.666 132.37 118.666 112.318C118.666 92.2656 102.408 76.01 82.3514 76.01C62.2954 76.01 46.0367 92.2656 46.0367 112.318C46.0367 132.37 62.2954 148.626 82.3514 148.626Z" fill="#22C55E"/>
<path d="M78.7528 126.168C77.9359 126.17 77.1406 125.905 76.487 125.415L76.4464 125.385L67.912 118.858C67.5167 118.555 67.185 118.177 66.9358 117.746C66.6866 117.314 66.5248 116.838 66.4595 116.345C66.3943 115.851 66.427 115.349 66.5557 114.868C66.6844 114.387 66.9066 113.936 67.2096 113.541C67.5126 113.146 67.8906 112.814 68.3218 112.565C68.753 112.316 69.2291 112.154 69.7229 112.089C70.2166 112.024 70.7184 112.056 71.1996 112.185C71.6807 112.314 72.1318 112.536 72.527 112.839L78.055 117.077L91.1177 100.039C91.4206 99.6435 91.7984 99.312 92.2295 99.0629C92.6605 98.8139 93.1364 98.6521 93.63 98.587C94.1235 98.5218 94.6251 98.5544 95.106 98.6831C95.587 98.8117 96.0379 99.0338 96.433 99.3366L96.4341 99.3374L96.353 99.45L96.4363 99.3374C97.2334 99.9499 97.7549 100.854 97.8863 101.85C98.0178 102.847 97.7485 103.855 97.1375 104.653L81.7728 124.685C81.4174 125.146 80.9603 125.52 80.4372 125.776C79.914 126.033 79.3388 126.165 78.7562 126.164L78.7528 126.168Z" fill="white"/>
<path d="M298.549 236.602C298.99 235.888 299.51 235.226 300.099 234.627C300.342 234.375 300.598 234.138 300.862 233.907C302.468 232.478 304.425 231.503 306.533 231.081C308.641 230.659 310.823 230.806 312.855 231.507C314.887 232.208 316.695 233.437 318.095 235.069C319.494 236.7 320.434 238.675 320.817 240.789C322.59 234.232 317.973 227.772 313.331 222.811C308.687 217.851 303.379 212.41 303.406 205.613C303.419 201.832 305.269 198.458 308.063 195.957C308.149 195.881 308.235 195.805 308.323 195.732C311.7 192.838 316.044 191.325 320.488 191.493C328.744 191.936 335.953 197.483 340.959 204.064C349.018 214.653 352.549 229.516 346.907 241.569C341.945 252.17 331.362 258.466 320.561 263.527C319.053 264.233 317.548 264.919 316.046 265.583C316.036 265.586 316.025 265.593 316.015 265.595C315.943 265.627 315.87 265.659 315.803 265.692C315.493 265.828 315.182 265.965 314.875 266.1L315.017 266.193L315.461 266.481C315.308 266.388 315.155 266.297 315.001 266.204C314.955 266.176 314.907 266.149 314.861 266.121C309.557 262.939 304.178 259.572 300.513 254.603C296.712 249.445 295.184 242.056 298.549 236.602Z" fill="#F1F1F1"/>
<path d="M333.942 224.622C335.116 227.294 335.895 230.123 336.253 233.019C336.535 235.602 336.429 238.212 335.939 240.764C334.886 246.007 332.588 250.92 329.24 255.091C326.714 258.257 323.798 261.091 320.561 263.526C319.053 264.233 317.548 264.919 316.046 265.583C316.036 265.586 316.025 265.593 316.015 265.595C315.943 265.627 315.87 265.659 315.803 265.692C315.493 265.828 315.182 265.965 314.875 266.1L315.017 266.193L315.462 266.481C315.308 266.388 315.155 266.297 315.001 266.204C314.956 266.176 314.907 266.149 314.861 266.121C316.029 262.038 316.2 257.735 315.362 253.572C314.523 249.409 312.699 245.508 310.042 242.195C307.37 238.925 303.964 236.331 300.099 234.627C300.342 234.375 300.598 234.138 300.862 233.907C302.351 234.59 303.776 235.404 305.121 236.338C309.932 239.663 313.545 244.448 315.424 249.985C317.102 255.008 317.311 260.406 316.028 265.544C316.294 265.37 316.562 265.191 316.821 265.014C321.763 261.682 326.318 257.68 329.749 252.773C332.708 248.625 334.601 243.814 335.262 238.763C335.92 233.245 334.539 227.819 332.075 222.895C329.354 217.628 325.926 212.757 321.885 208.419C317.826 203.961 313.237 200.016 308.22 196.672C308.107 196.596 308.028 196.479 307.998 196.346C307.969 196.212 307.992 196.073 308.063 195.956C308.116 195.85 308.21 195.77 308.323 195.732C308.38 195.717 308.44 195.716 308.498 195.728C308.556 195.739 308.611 195.764 308.658 195.8C309.278 196.213 309.892 196.63 310.498 197.059C315.551 200.636 320.139 204.827 324.158 209.535C328.042 214.073 331.576 219.115 333.942 224.622Z" fill="white"/>
<path d="M225.786 16.8586C230.045 16.8586 233.498 13.4063 233.498 9.14779C233.498 4.88925 230.045 1.43701 225.786 1.43701C221.526 1.43701 218.073 4.88925 218.073 9.14779C218.073 13.4063 221.526 16.8586 225.786 16.8586Z" fill="#F1F1F1"/>
<path d="M321.683 120.047C324.28 120.047 326.385 117.942 326.385 115.346C326.385 112.75 324.28 110.645 321.683 110.645C319.086 110.645 316.981 112.75 316.981 115.346C316.981 117.942 319.086 120.047 321.683 120.047Z" fill="#F1F1F1"/>
<path d="M184.072 132.946C186.669 132.946 188.774 130.841 188.774 128.244C188.774 125.648 186.669 123.543 184.072 123.543C181.475 123.543 179.37 125.648 179.37 128.244C179.37 130.841 181.475 132.946 184.072 132.946Z" fill="#F1F1F1"/>
<path d="M186.727 267H350.57C350.684 267 350.793 266.955 350.874 266.874C350.955 266.793 351 266.684 351 266.57C351 266.456 350.955 266.347 350.874 266.266C350.793 266.185 350.684 266.14 350.57 266.14H186.727C186.613 266.14 186.504 266.185 186.423 266.266C186.342 266.347 186.297 266.456 186.297 266.57C186.297 266.684 186.342 266.793 186.423 266.874C186.504 266.955 186.613 267 186.727 267Z" fill="#CBCBCB"/>
<path d="M332.489 41.5484C332.704 40.0213 332.351 38.4683 331.498 37.1837C330.644 35.8992 329.349 34.9723 327.858 34.5787C326.366 34.1851 324.782 34.3522 323.406 35.0483C322.029 35.7444 320.956 36.9211 320.389 38.3555L307.094 53.5949L310.995 64.4885L324.366 46.6819C325.238 46.9613 326.162 47.0461 327.07 46.9302C327.979 46.8144 328.852 46.5007 329.626 46.0112C330.401 45.5218 331.058 44.8685 331.553 44.0975C332.048 43.3264 332.367 42.4563 332.489 41.5484Z" fill="#FED7AA"/>
<path d="M277.377 100.845L321.511 53.7525L315.558 44.2902L260.203 91.0964L277.377 100.845Z" fill="#3F3D56"/>
<path d="M267.527 72.2319C276.077 72.2319 283.008 65.3021 283.008 56.7537C283.008 48.2052 276.077 41.2754 267.527 41.2754C258.977 41.2754 252.046 48.2052 252.046 56.7537C252.046 65.3021 258.977 72.2319 267.527 72.2319Z" fill="#2F2E41"/>
<path d="M268.772 48.0098C272.103 44.6323 276.134 42.026 280.582 40.3742C283.437 39.3168 286.544 38.6635 289.528 39.264C292.513 39.8645 295.336 41.9289 296.168 44.8567C296.849 47.2508 296.146 49.8286 295.09 52.0823C294.033 54.336 292.622 56.4258 291.768 58.7637C290.896 61.149 290.634 63.7144 291.005 66.2268C291.376 68.7392 292.369 71.1191 293.894 73.1505C295.418 75.1819 297.426 76.8004 299.735 77.8591C302.044 78.9179 304.581 79.3833 307.115 79.2132C304.183 79.6063 301.479 80.9841 298.613 81.7176C295.747 82.4509 292.364 82.4012 290.233 80.3481C287.98 78.1758 287.934 74.6438 288.043 71.5158C288.205 66.8659 288.367 62.216 288.529 57.566C288.612 55.1946 288.683 52.7473 287.827 50.5339C286.972 48.3206 284.939 46.3825 282.566 46.4026C280.767 46.4179 279.175 47.5073 277.733 48.5816C276.29 49.656 274.764 50.8022 272.972 50.962C271.181 51.1218 269.135 49.7962 269.269 48.0029L268.772 48.0098Z" fill="#2F2E41"/>
<path d="M208.728 160.683C207.242 161.096 205.656 160.949 204.271 160.271C202.886 159.592 201.797 158.43 201.212 157.003C200.627 155.576 200.586 153.984 201.096 152.528C201.606 151.073 202.633 149.856 203.981 149.106L217.356 133.936L228.668 136.38L212.757 151.96C213.149 152.789 213.353 153.693 213.357 154.609C213.361 155.525 213.164 156.43 212.78 157.262C212.396 158.094 211.834 158.831 211.134 159.422C210.434 160.013 209.613 160.443 208.728 160.683Z" fill="#FED7AA"/>
<path d="M252.73 106.372L219.396 148.207L209.235 143.542L248.415 82.5559L252.73 106.372Z" fill="#3F3D56"/>
<path d="M226.132 232.695L218.188 232.57L219.143 259.642H226.131L226.132 232.695Z" fill="#FED7AA"/>
<path d="M227.913 257.361L214.152 257.361H214.151C211.825 257.361 209.595 258.285 207.95 259.929C206.306 261.573 205.382 263.804 205.381 266.129V266.414L227.913 266.415L227.913 257.361Z" fill="#2F2E41"/>
<path d="M278.733 225.514L270.054 231.085L287.414 251.965L293.294 248.191L278.733 225.514Z" fill="#FED7AA"/>
<path d="M293.561 245.309L281.981 252.742L281.98 252.742C280.023 253.999 278.646 255.981 278.15 258.253C277.655 260.525 278.082 262.901 279.339 264.858L279.493 265.098L298.453 252.927L293.561 245.309Z" fill="#2F2E41"/>
<path d="M281.824 142.847C281.824 142.847 262.542 78.8157 256.345 77.9504C250.148 77.0851 240.164 94.3801 240.164 94.3801C227.218 110.894 213.87 164.385 213.87 164.385C213.87 164.385 236.123 165.777 252.389 174.43C268.656 183.083 287.853 173.992 287.853 173.992L281.824 142.847Z" fill="#3F3D56"/>
<path opacity="0.1" d="M281.824 142.847C281.824 142.847 262.542 78.8156 256.345 77.9503C250.148 77.085 242.7 94.5556 242.7 94.5556C236.249 121.213 213.87 164.385 213.87 164.385C213.87 164.385 236.123 165.777 252.389 174.43C268.656 183.083 287.853 173.992 287.853 173.992L281.824 142.847Z" fill="black"/>
<path d="M266.005 123.689V155.865L269.792 202.473L288.713 237.729L279.683 244.179L253.881 210.642L243.676 177.343L227.649 251.058L215.608 250.198L223.97 147.994L239.839 119.226L266.005 123.689Z" fill="#2F2E41"/>
<path d="M246.563 92.5684C240.543 98.5878 246.133 105.037 246.133 105.037L239.252 120.515L266.345 127.824L275.812 85.5266L269.362 78.6473C256.461 78.2174 256.454 77.9501 256.454 77.9501C254.193 80.1617 246.563 92.5684 246.563 92.5684Z" fill="#E6E6E6"/>
<path d="M276.903 81.1445C275.673 80.2364 274.274 79.5814 272.789 79.2175C271.303 78.8536 269.761 78.788 268.25 79.0244C266.739 79.2609 265.29 79.7947 263.986 80.5951C262.683 81.3954 261.552 82.4463 260.658 83.6869C253.847 93.1683 247.549 108.478 256.226 127.573C270.159 158.232 282.284 173.928 287.213 173.926C287.428 173.928 287.642 173.894 287.846 173.827C290.88 172.798 295.267 167.665 296.061 163.141C296.345 161.522 296.277 159.267 294.341 157.719C288.778 153.27 278.792 139.419 275.677 121.188C273.955 111.115 277.294 101.938 280.398 96.0146C281.709 93.5635 282.092 90.7221 281.478 88.0112C280.864 85.3003 279.293 82.9016 277.053 81.2547L276.903 81.1445Z" fill="#3F3D56"/>
<path d="M268.323 70.7113C273.846 67.693 275.876 60.7701 272.857 55.2486C269.838 49.7272 262.914 47.6979 257.391 50.7163C251.869 53.7346 249.839 60.6574 252.858 66.1789C255.877 71.7004 262.801 73.7296 268.323 70.7113Z" fill="#FED7AA"/>
<path d="M246.831 59.8523H263.286L263.455 57.4903L264.298 59.8523H266.832L267.167 55.1708L268.839 59.8523H273.742V59.6204C273.738 56.3612 272.441 53.2365 270.136 50.9318C267.831 48.6272 264.706 47.3308 261.446 47.3271H259.126C255.866 47.3308 252.741 48.6272 250.436 50.9318C248.131 53.2364 246.834 56.3612 246.831 59.6204V59.8523Z" fill="#2F2E41"/>
<path d="M271.256 68.3427L278.278 66.0645V49.0145H265.014L265.342 49.3423C269.911 53.9045 274.993 70.0905 271.256 68.3427Z" fill="#2F2E41"/>
</g>
<defs>
<clipPath id="clip0_162_142">
<rect width="351" height="267" fill="white"/>
</clipPath>
</defs>
</svg>
